<?xml version="1.0" encoding="utf-8"?>
<!-- Generator: Adobe Illustrator 21.0.0, SVG Export Plug-In . SVG Version: 6.00 Build 0)  -->
<svg version="1.1" id="Layer_1" xmlns="http://www.w3.org/2000/svg" xmlns:xlink="http://www.w3.org/1999/xlink" x="0px" y="0px"
	 viewBox="0 0 841.9 595.3" style="enable-background:new 0 0 841.9 595.3;" xml:space="preserve">
<style type="text/css">
	.st0{fill:#3D0101;}
	.st1{fill:none;stroke:#000000;stroke-miterlimit:10;}
</style>
<g id="XMLID_2_">
	<g>
		<path d="M351.9,86.6l8.7,2.5l-66,230.3c0.1-5.6-1.7-10.7-5-15.1L351.9,86.6z"/>
		<path class="st0" d="M292.8,325.5l-8.7-2.5l5.4-18.8c3.3,4.4,5.1,9.5,5,15.1L292.8,325.5z"/>
		<path class="st0" d="M294.5,320.5c-1.2,18.2-29.9,31.1-64.1,28.8c-34.2-2.3-60.9-18.9-59.6-37.1c2.7-39.8,95.9-38.6,118.8-7.9
			l-5.4,18.8l8.7,2.5l1.8-6.1C294.5,319.7,294.5,320.1,294.5,320.5z"/>
	</g>
	<g>
		<path class="st1" d="M294.5,319.4c0,0.4,0,0.7,0,1.1c-1.2,18.2-29.9,31.1-64.1,28.8c-34.2-2.3-60.9-18.9-59.6-37.1
			c2.7-39.8,95.9-38.6,118.8-7.9"/>
		<polygon class="st1" points="289.5,304.2 351.9,86.6 360.6,89 294.5,319.4 292.8,325.5 284.1,323 		"/>
	</g>
</g>
<g id="XMLID_1_">
	<g>
		<path d="M439.7,266.5c-7.5,37.9-51.3,58.5-54.3,55.2c-2.4-2.7,23.3-18.3,32.4-44c8.1-5.9,16.6-14,22.9-24.2
			C440.9,258.5,440.5,262.8,439.7,266.5z"/>
		<path d="M448.8,233c-1.5,7.5-4.4,14.3-8.1,20.4c-0.4-7.4-2.2-16.5-6.8-28.1c-1.5-3.8-3.2-7.5-5-11c-4.9-25.7-26.5-59.8-82.4-105.3
			l3.6-12.5c24.4,13.1,72.1,43.3,92.8,95.3C450.7,211.3,450.7,223.7,448.8,233z"/>
		<path d="M433.9,225.3c4.6,11.6,6.5,20.7,6.8,28.1c-6.2,10.2-14.8,18.4-22.9,24.2c0.7-2.1,1.4-4.3,1.9-6.5c1-4.5,1.4-9.3,1.2-14.5
			c3.5-5.7,6.4-12,7.9-19.1c1.5-6.9,1.8-14.7,0.1-23.4C430.7,217.8,432.3,221.5,433.9,225.3z"/>
		<path d="M419.7,271.2c-0.5,2.2-1.1,4.4-1.9,6.5c-11.4,8.3-21.9,12.1-23.3,10.5c-2-2.2,15.2-13.2,26.3-31.5
			C421.1,261.9,420.6,266.7,419.7,271.2z"/>
		<path d="M428.8,237.6c-1.5,7-4.4,13.4-7.9,19.1c-1.2-26.6-20.9-63.2-83.4-114.2L341,130c22.6,12.2,65.3,39,87.9,84.2
			C430.6,223,430.3,230.7,428.8,237.6z"/>
	</g>
	<g>
		<path class="st1" d="M428.9,214.3c-4.9-25.7-26.5-59.8-82.4-105.3l3.6-12.5c24.4,13.1,72.1,43.3,92.8,95.3
			c7.8,19.5,7.7,31.9,5.9,41.2c-1.5,7.5-4.4,14.3-8.1,20.4c-6.2,10.2-14.8,18.4-22.9,24.2c-11.4,8.3-21.9,12.1-23.3,10.5
			c-2-2.2,15.2-13.2,26.3-31.5c3.5-5.7,6.4-12,7.9-19.1C430.3,230.7,430.6,223,428.9,214.3z"/>
		<path class="st1" d="M420.9,256.7c-1.2-26.6-20.9-63.2-83.4-114.2L341,130c22.6,12.2,65.3,39,87.9,84.2c1.8,3.6,3.4,7.3,5,11
			c4.6,11.6,6.5,20.7,6.8,28.1c0.2,5.1-0.2,9.3-1,13.1c-7.5,37.9-51.3,58.5-54.3,55.2c-2.4-2.7,23.3-18.3,32.4-44
			c0.7-2.1,1.4-4.3,1.9-6.5C420.6,266.7,421.1,261.9,420.9,256.7z"/>
	</g>
</g>
<g id="XMLID_4_">
	<g>
		<path class="st0" d="M460.4,366.7c-1.2,18.2-29.9,31.1-64.1,28.8c-34.2-2.3-60.9-18.9-59.6-37.1c2.7-39.8,95.9-38.6,118.8-7.9
			l-5.4,18.8l8.7,2.5l1.8-6.1C460.5,366,460.4,366.3,460.4,366.7z"/>
		<path d="M460.5,365.6l-1.8,6.1l-8.7-2.5l5.4-18.8C458.8,354.9,460.6,360,460.5,365.6z"/>
		<path d="M526.5,135.3l-66,230.3c0.1-5.6-1.7-10.7-5-15.1l62.4-217.7L526.5,135.3z"/>
	</g>
	<g>
		<path class="st1" d="M460.5,365.6c0,0.4,0,0.7,0,1.1c-1.2,18.2-29.9,31.1-64.1,28.8c-34.2-2.3-60.9-18.9-59.6-37.1
			c2.7-39.8,95.9-38.6,118.8-7.9"/>
		<polygon class="st1" points="455.4,350.5 517.8,132.8 526.5,135.3 460.5,365.6 458.7,371.7 450.1,369.3 		"/>
	</g>
</g>
<g id="XMLID_3_">
	<g>
		<path d="M605.5,312.8c-7.5,37.9-51.3,58.5-54.3,55.2c-2.4-2.7,23.3-18.3,32.4-44c8.1-5.9,16.6-14,22.9-24.3
			C606.7,304.7,606.3,309,605.5,312.8z"/>
		<path d="M599.7,271.5c4.6,11.6,6.5,20.7,6.8,28.1c-6.2,10.2-14.8,18.4-22.9,24.3c0.7-2.1,1.4-4.3,1.9-6.5c1-4.5,1.4-9.3,1.2-14.5
			c3.5-5.7,6.4-12,7.9-19.1c1.5-6.9,1.8-14.7,0.1-23.4C596.5,264.1,598.1,267.7,599.7,271.5z"/>
		<path d="M585.5,317.4c-0.5,2.2-1.1,4.4-1.9,6.5c-11.4,8.3-21.9,12.1-23.3,10.5c-2-2.2,15.2-13.2,26.3-31.5
			C586.9,308.1,586.5,312.9,585.5,317.4z"/>
		<path d="M515.9,142.7c24.4,13.1,72.1,43.3,92.8,95.3c7.8,19.5,7.7,31.9,5.9,41.2c-1.5,7.5-4.4,14.3-8.1,20.4
			c-0.4-7.4-2.2-16.5-6.8-28.1c-1.5-3.8-3.2-7.5-5-11.1c-4.9-25.7-26.5-59.8-82.4-105.3L515.9,142.7z"/>
		<path d="M506.8,176.3c22.6,12.1,65.3,39,87.9,84.2c1.7,8.7,1.4,16.5-0.1,23.4c-1.5,7-4.4,13.4-7.9,19.1
			c-1.2-26.6-20.9-63.2-83.4-114.2L506.8,176.3z"/>
	</g>
	<g>
		<path class="st1" d="M594.7,260.5c-4.9-25.7-26.5-59.8-82.4-105.3l3.6-12.5c24.4,13.1,72.1,43.3,92.8,95.3
			c7.8,19.5,7.7,31.9,5.9,41.2c-1.5,7.5-4.4,14.3-8.1,20.4c-6.2,10.2-14.8,18.4-22.9,24.3c-11.4,8.3-21.9,12.1-23.3,10.5
			c-2-2.2,15.2-13.2,26.3-31.5c3.5-5.7,6.4-12,7.9-19.1C596.1,277,596.4,269.2,594.7,260.5z"/>
		<path class="st1" d="M586.7,302.9c-1.2-26.6-20.9-63.2-83.4-114.2l3.6-12.5c22.6,12.1,65.3,39,87.9,84.2c1.8,3.6,3.5,7.3,5,11.1
			c4.6,11.6,6.5,20.7,6.8,28.1c0.2,5.1-0.2,9.3-1,13.1c-7.5,37.9-51.3,58.5-54.3,55.2c-2.4-2.7,23.3-18.3,32.4-44
			c0.7-2.1,1.4-4.3,1.9-6.5C586.5,312.9,586.9,308.1,586.7,302.9z"/>
	</g>
</g>
<g>
	<g>
		<path class="st0" d="M286,313.6c-2.4-0.6-3.4,2.4-1.5,3.6c2.2,1.4,5.6-1.2,3.7-3.5c-0.6-0.7-1.7-1-2.6-0.5c-0.5,0.3-0.7,0.7-1,1.2
			c-0.1,0.3-0.1,0.7-0.1,1.1c-0.4,0.3-0.8,0.6-1.2,0.8c-1.6,1.3-1.5,4.8,1.1,4.5c0.6-0.1,1.3-0.4,1.4-1.1c0-0.1,0-0.2,0.1-0.2
			c0.5-1.9-2.2-2.6-2.9-0.8c-0.6,1.7,1.3,3.2,2.8,2.2c1-0.6,0.9-1.6,0.9-2.6c-0.1-1.4,0.4-2.3,0.7-3.7c0.2-1.4,0.7-2.6,1.3-3.9
			c0.1-0.2,0.2-1-0.1-0.5c0.3-0.4,1-0.7,1.3-1.2c1.3-1.7,0.5-3.7-1.6-4c0.5,0.5,1,1,1.5,1.5c0-0.2,0-0.5,0-0.7c0-1.9-3-1.9-3,0
			c0,0.2,0,0.5,0,0.7c0,0.9,0.7,1.4,1.5,1.5c0.2,0,0.3,0,0.5,0.1c-0.4-0.2-0.9-0.5-1.3-0.7c-0.2-0.3-1.7,1.4-1.8,1.7
			c-0.1,0.4,0.1,0.9,0,1.2c-0.2,0.7-0.8,1.1-1,1.8c-0.5,1.2-0.7,2.7-1,4c-0.1,0.5-0.3,0.8-0.3,1.3c0,0.2,0,0.5,0,0.7
			c0.1,0.8,0.5,0.8,1.2,0.2c0.4,0.2,0.9,0.5,1.3,0.7c0,0.2,0,0.4,0,0.6c-1-0.3-1.9-0.5-2.9-0.8c0,0.1,0,0.2-0.1,0.2
			c0.5-0.4,1-0.7,1.4-1.1c0.1,0.9,0.4,1.3,0.9,1c0.2-0.1,0.5-0.2,0.7-0.4c0.3-0.2,0.6-0.5,0.8-0.8c0.2-0.3,0.5-0.7,0.5-1.1
			c0-0.1,0-0.3,0.1-0.4c0.3-0.8-0.1-1.1-1.1-1.2c-0.1,0.5-0.3,1-0.4,1.5c0.1-0.1,0.2-0.2,0.3-0.3c-0.5,0.1-1,0.3-1.5,0.4
			c0.1,0,0.2,0.1,0.4,0.1C287.1,317,287.9,314.1,286,313.6L286,313.6z"/>
	</g>
</g>
<g>
	<g>
		<path class="st0" d="M281.6,320.2c0.1,0.1,0,0.6,0,0.9c0.1,0.5,0.2,0.9,0.6,1.2c0.9,0.8,2.4,0.6,3.5,0.6c-0.3-0.9-0.5-1.9-0.8-2.8
			c-1,0.6-1.7,1.7-1.1,2.8c0.2,0.4,0.6,0.8,1.1,0.9c0.3,0.1,0.5,0.1,0.8,0c0.1,0,1-0.3,0.4-0.2c0-1,0-2,0-3c-0.8,0-1.7-0.1-2.6,0.2
			c-0.5,0.1-1,0.5-1,1c0,0,0,0.1,0,0.1c-0.1,0.7,0.1,1.3,0.7,1.7c0,0,0.1,0,0.1,0.1c0.6,0.4,1.4,0.2,1.8-0.2c1.1-1,1.4-2.8-0.1-3.6
			c-1.7-0.9-2.9,1-2.8,2.5c0.2,1.5,1.4,2.8,3,2.7c1.7-0.1,2.6-1.7,2.4-3.3c-0.2-1.4-2.7-1.4-2.9,0c-0.4,2.2,0.1,5.3,3,5.2
			c2.1-0.1,4.8-2.8,4-4.9c-0.3-0.8-1.3-1.5-2.2-0.9c-1.2,0.9-1.5,2.4-0.4,3.5c1,0.9,2.5,0.3,2.6-1.1c0-0.3,0-0.6,0-0.9
			c0-1.7-2.5-2-2.9-0.4c-0.2,0.6-0.2,1.1-0.3,1.7c0.8-0.4,1.5-0.9,2.3-1.3c-1.7-1.2-4.1-0.9-5.4,0.7c-0.9,1.1-0.1,2.9,1.5,2.5
			c1.6-0.4,2.6-1.8,2.6-3.4c0-1.5-2-2-2.8-0.8c-1,1.6-0.2,3.6,1.6,4.1c1.8,0.5,3.5-1.1,3.3-2.9c-0.2-1.9-3.2-1.9-3,0
			c0.2,0.1,0.4,0.2,0.6,0.3c-0.9-0.3-1.9-0.5-2.8-0.8c0.1,0.3-0.1,0.5-0.4,0.5c0.5,0.8,1,1.7,1.5,2.5c0.5-0.6,1.1-0.7,1.7-0.2
			c1,0.7,2.2-0.3,2.3-1.3c0-0.3,0.1-0.6,0.2-0.9c-1-0.1-2-0.3-2.9-0.4c0,0.3,0,0.6,0,0.9c0.9-0.4,1.7-0.7,2.6-1.1
			c-0.1,0.4-0.2,0.8-0.2,1.2c-0.7-0.3-1.5-0.6-2.2-0.9c0,0.1-0.7,1-0.9,1c-0.6,0.1-0.4-0.9-0.3-1.3c-1,0-1.9,0-2.9,0
			c0.3-0.1,0.5-0.3,0.6-0.6c-0.4,0.2-0.9,0.5-1.3,0.7c0.1,0,0.2,0,0.3,0c-0.4-0.1-0.7-0.3-1.1-0.4c-0.1-0.3-0.1-0.6-0.2-0.8
			c0.6-0.1,1.2-0.2,1.8-0.2c0,0-0.1,0-0.1-0.1c0.2,0.6,0.5,1.1,0.7,1.7c0,0,0-0.1,0-0.1c-0.3,0.3-0.7,0.7-1,1
			c0.5-0.2,1.2-0.1,1.8-0.1c1.9-0.1,1.9-3.1,0-3c-0.5,0-0.8,0.2-1.2,0.4c0.4,0.1,0.8,0.1,1.2,0.2c0.1,0.1,0.2,0.2,0.3,0.2
			c0.1,0.4,0.1,0.8,0.2,1.2c0,0.1-0.1,0.2-0.1,0.2c1.4-0.7,0.7-2.7-0.8-2.8c-0.2,0-1.7-0.2-1.5,0.1c0.1,0.4,0.3,0.7,0.4,1.1
			c-0.1-0.6,0.1-1.1-0.1-1.7C283.8,317.6,280.9,318.4,281.6,320.2L281.6,320.2z"/>
	</g>
</g>
<g>
	<g>
		<path class="st0" d="M292.1,325.3c0-0.1,0.1-0.3,0.1-0.4c0.2-0.8-1-1.4-1.4-0.6c-0.2,0.4-0.2,0.6-0.2,1c0,0.7,0.8,0.9,1.3,0.5
			c0.1-0.1,0.2-0.2,0.3-0.3c-0.4-0.2-0.9-0.4-1.3-0.5c0,0.4,0,0.6,0.1,1c0.2,0.9,1.4,0.6,1.5-0.2c0.1-0.2,0.1-0.5,0.2-0.7
			c-0.5-0.1-0.9-0.3-1.4-0.4c0,0.4,0,0.6,0.1,1c0.2,0.8,1.5,0.7,1.5-0.2c0-0.8,0.3-1.5,0.6-2.2c0.2-0.7,0.3-1.5,0.5-2.1
			c0.3-1.1,0.7-2.1,0.7-3.2c0-1-1.5-1-1.5,0c0,1.3-0.7,2.5-0.9,3.8c-0.2,1.4-0.9,2.4-0.8,3.8c0.5-0.1,1-0.1,1.5-0.2
			c0-0.2-0.1-0.4-0.1-0.6c0-0.7-1-1.1-1.4-0.4c-0.3,0.5-0.4,0.9-0.4,1.5c0.5-0.1,1-0.1,1.5-0.2c0-0.2,0-0.4,0-0.6
			c0.1-0.7-0.8-0.9-1.3-0.5c-0.1,0.1-0.2,0.2-0.3,0.3C291.2,324.9,291.7,325.1,292.1,325.3c0-0.1,0-0.1,0-0.2
			c-0.5-0.2-0.9-0.4-1.4-0.6c0,0.1-0.1,0.3-0.1,0.4C290.4,325.8,291.9,326.2,292.1,325.3L292.1,325.3z"/>
	</g>
</g>
<g>
	<g>
		<path d="M450,366.1c-0.7,0.4-1.2,1.2-1.1,2c0,0.8,0.5,1.6,1.1,2.1c0.8,0.7,1.9,1,2.7,0.2c0.6-0.6,0.7-1.5,0.5-2.2
			c-0.1-0.8-0.6-1.6-1.4-1.8c-0.9-0.3-1.9,0.2-2.4,1c-0.9,1.6,0.2,3.8,2.2,3.7c1.4-0.1,1.9-1.5,1.1-2.6c-0.5-0.7-1.5-0.8-2.3-0.6
			c-1,0.3-1.5,1.1-1.6,2c-0.1,0.8,0.8,1.5,1.5,1.5c0.9,0,1.4-0.7,1.5-1.5c0,0.3-0.1,0.6-0.4,0.8c-0.2,0.1-0.2,0.1-0.1,0
			c-0.1,0-0.3,0-0.4,0c-0.4-0.3-0.5-0.3-0.3-0.2c0.4-0.9,0.7-1.7,1.1-2.6c-0.3,0-0.2,0,0.2,0.1c0.1,0.1,0.2,0.2,0.2,0.3
			c0,0.2,0,0.3-0.1,0.4c-0.2,0.3-0.5,0.3-0.9,0c-0.4,0.1-0.7,0-0.8-0.3c0-0.2,0-0.2,0,0c0,0.2,0,0.2,0,0c0,0.2,0,0.2,0,0
			c0.2-0.2,0.4-0.4,0.5-0.5c0,0-0.1,0-0.1,0.1c0.3-0.1,0.5-0.1,0.8-0.2c0,0-0.1,0-0.1,0c0.3,0.1,0.5,0.1,0.8,0.2
			c-0.2-0.1,0,0-0.1-0.1c0,0-0.3-0.2-0.2-0.1c0,0-0.1-0.1-0.1-0.1c0,0.1,0.1,0.2,0.1,0.3c0,0.2-0.2,0.5-0.4,0.6
			c0.7-0.4,0.9-1.4,0.5-2.1C451.7,365.9,450.8,365.7,450,366.1L450,366.1z"/>
	</g>
</g>
<g>
	<g>
		<path d="M449.7,367.2c-0.2,1.1-0.4,2.4,0.4,3.4c0.7,0.9,1.9,1.4,3,0.9c1.1-0.5,1.5-1.7,1.5-2.9c0-1.3-0.9-2.2-2.1-2.7
			c-2.3-0.8-4.9,0.9-4.5,3.5c0.4,2.2,3.7,3,4.9,0.9c0.6-1,0.3-2.4-0.6-3.2c-0.6-0.5-1.4-0.7-2.1-0.5c-0.4,0.1-0.7,0.3-0.9,0.6
			c-0.1,0.2-0.2,0.3-0.3,0.5c0,0.1-0.1,0.2-0.1,0.3c-0.1,0.2,0,0.1,0.1-0.2c0.2-0.1,0.4-0.3,0.7-0.4c0,0-0.1,0-0.1,0
			c0.3,0,0.5,0,0.8,0c0,0-0.1,0-0.1-0.1c-0.8-0.3-1.6,0.3-1.8,1c-0.2,0.8,0.3,1.6,1,1.8c0.6,0.2,1.3,0,1.7-0.4
			c0.2-0.2,0.3-0.3,0.5-0.6c0.1-0.1,0.1-0.2,0.2-0.4c0.1-0.2,0.1-0.2-0.1,0.1c-0.2,0.1-0.4,0.3-0.7,0.4c0.1,0,0.1,0,0.2,0
			c-0.3,0-0.5,0-0.8,0c0.4,0.1-0.1-0.1-0.1-0.2c-0.1-0.2-0.1-0.3,0-0.5c0.1-0.2,0.3-0.3,0.5-0.2c0,0,0.1,0.1,0.1,0.1
			c0,0,0,0.1,0,0.1c0,0.1,0,0,0-0.1c0,0,0,0.1,0,0.1c0,0,0-0.1,0.2-0.1c0.2,0,0.3,0.1,0.5,0.1c-0.1,0-0.1-0.5-0.1,0c0,0,0,0.2,0,0.2
			c0.2,0.3,0.5-0.5,0.7-0.3c0,0,0.5,0.2,0.2,0.2c-0.1,0,0-0.9,0.1-0.9c0.2-0.8-0.2-1.6-1-1.8C450.8,365.9,449.9,366.4,449.7,367.2
			L449.7,367.2z"/>
	</g>
</g>
<g>
	<g>
		<path d="M425.5,356.5c-0.1,0-0.1,0-0.2,0c-0.8,0-1.5,0.7-1.5,1.5c0,0.8,0.7,1.5,1.5,1.5c0.1,0,0.1,0,0.2,0c0.8,0,1.5-0.7,1.5-1.5
			C427,357.2,426.3,356.5,425.5,356.5L425.5,356.5z"/>
	</g>
</g>
<g>
	<g>
		<path class="st0" d="M427,357.6c-1.6,0.1-1.9,0.3-2.8,1.6c-0.6,0.9,0.2,2.3,1.3,2.3c2.7-0.2,4.6-2.7,2.2-4.8
			c-0.4-0.3-0.9-0.6-1.5-0.4c-1.7,0.7-2.3,1.8-1.5,3.5c0.7-0.7,1.4-1.4,2.1-2.1c-1.7-1.3-3.4-1.3-5.2-0.4c-1.1,0.5-0.9,2,0,2.6
			c1.5,1,3.2,1.5,4.7,2.6c1.5,1.1,2.9,2,4.7,2.6c3.6,1.1,6.9,1.2,10.3-0.2c1.9-0.8,0.5-1.5,2.4,1c1.4,1.8,3.5,4,5.8,4.7
			c2.4,0.7,4-0.4,4.2-2.8c0.2-1.7-2.5-2-2.9-0.4c-0.3,1-0.6,1.9-0.8,2.9c1,0.1,2,0.3,2.9,0.4c-0.1-1.2-0.2-2-0.4-3.2
			c-0.2-1.2-2.2-1.5-2.7-0.4c-0.5,1.1-1,2.2-1.5,3.3c0.9,0.3,1.9,0.5,2.8,0.8c0-1.4-0.1-2.9-0.2-4.3c-0.1-1.4-2-2.1-2.8-0.8
			c-0.9,1.6-0.9,1.6-1,3.5c0,1.5,2.1,2.1,2.8,0.8c1.1-2,1.1-3.3,0.1-5.3c-0.5-1-2.1-0.9-2.6,0c-0.6,1-1.1,2-1.7,3.1
			c0.9,0.3,1.9,0.5,2.8,0.8c0.1-1.7-0.1-3.1-0.6-4.7c-0.4-1.1-2.2-1.6-2.7-0.4c-1.3,2.9,0.2,7.6,4,4.9c-0.8-0.4-1.5-0.9-2.3-1.3
			c0.1,1.3,0.1,2.6,0.2,3.9c0.1,1.7,2.5,2.1,2.9,0.4c0.5-1.7,0.5-1.6,0.4-3.4c0-1.5-2-2-2.8-0.8c-0.9,1.4-1,2.4-0.6,4
			c0.3,1.6,2.4,1.3,2.9,0c0.3-0.8,0.6-1.6,0.8-2.3c-0.8,0.2-1.7,0.4-2.5,0.7c0.3,0.4,0.6,0.8,1,1.2c0.6,0.7,2,0.5,2.4-0.3
			c2-4.2-1.2-8.1,0.2-12.2c-1,0-1.9,0-2.9,0c1.8,4.7,3,9.5,3.5,14.5c0.2,1.9,2.9,2,3,0c0.4-5.3,1.5-12.7-2.1-17.2
			c-1.1-1.4-3.1,0.4-2.4,1.8c2.3,4.3,3.5,8.5,3.9,13.3c0.2,1.9,2.8,1.9,3,0c0.4-5.5-0.9-10.5-4.1-15c-1.1-1.6-3.7-0.1-2.6,1.5
			c2.9,4.1,4,8.5,3.6,13.5c1,0,2,0,3,0c-0.4-5.3-1.8-10.1-4.3-14.8c-0.8,0.6-1.6,1.2-2.4,1.8c2.7,3.3,1.5,11.1,1.2,15c1,0,2,0,3,0
			c-0.6-5.3-1.7-10.3-3.6-15.3c-0.5-1.4-2.4-1.5-2.9,0c-1.3,3.8,1.7,8,0.1,11.5c0.8-0.1,1.6-0.2,2.4-0.3c-0.3-0.4-0.6-0.8-1-1.2
			c-0.8-1-2.2-0.3-2.5,0.7c-0.3,0.8-0.6,1.6-0.8,2.3c1,0,1.9,0,2.9,0c0.1-0.6,0.2-1.1,0.3-1.7c-0.9-0.3-1.9-0.5-2.8-0.8
			c-0.1,0.9-0.2,1.7-0.3,2.6c1,0.1,2,0.3,2.9,0.4c-0.1-1.3-0.1-2.6-0.2-3.9c-0.1-1-1.3-2-2.3-1.3c0-0.3,0.1-0.6,0.1-0.8
			c-0.9-0.1-1.8-0.2-2.7-0.4c0.5,1.3,0.7,2.5,0.5,3.9c-0.1,1.5,2.1,2.1,2.8,0.8c0.6-1,1.1-2,1.7-3.1c-0.9,0-1.7,0-2.6,0
			c0,0.8-0.1,1.5-0.1,2.3c0.9,0.3,1.9,0.5,2.8,0.8c0.2-0.6,0.4-1.3,0.6-1.9c-0.9-0.3-1.9-0.5-2.8-0.8c0.1,1.4,0.2,2.8,0.2,4.3
			c0,1.4,2.1,2.2,2.8,0.8c0.5-1.1,1-2.2,1.5-3.3c-0.9-0.1-1.8-0.2-2.7-0.4c0.1,0.8,0.2,1.6,0.3,2.4c0.1,1.6,2.4,2.1,2.9,0.4
			c0.3-1,0.6-1.9,0.8-2.9c-1-0.1-2-0.3-2.9-0.4c-0.1,1.2-6.1-6-6.5-6.3c-1.3-1-1.8-1.1-3.4-0.6c-2.5,0.7,5.4,0.7-4,2.2
			c-1.6,0.2-3.5-0.3-5-0.8c-2.1-0.7-3-2.2-4.7-3.3c-1.3-0.8-2.5-0.6-3.9-1.6c0,0.9,0,1.7,0,2.6c0.7,0.1,1.5,0.2,2.2,0.4
			c1.3,1,2.6-0.9,2.1-2.1c-0.6,0-1.2,0.1-1.8,0.1c0.4,0.8,0.9,1.5,1.3,2.3c0.1,0,0.2-0.1,0.2-0.1C428.9,360.4,428.9,357.4,427,357.6
			L427,357.6z"/>
	</g>
</g>
</svg>
